<svg width="166" height="15" viewBox="0 0 166 15" fill="none" xmlns="http://www.w3.org/2000/svg">
<path fill-rule="evenodd" clip-rule="evenodd" d="M99.3458 6.8511C77.2542 7.11752 55.1516 8.17439 33.1562 10.0635C22.6989 10.9619 10.5548 10.8496 0.412512 13.9122C-0.0928523 14.0664 0.00339267 14.5288 0.0143313 14.575C0.0362086 14.6697 0.128117 14.9845 0.530658 14.9999C0.574413 15.0021 0.88286 14.9581 1.001 14.9427C3.99599 14.5464 6.98006 14.084 9.97724 13.7097C20.3252 12.4128 30.7038 11.4331 41.0976 10.5744C54.8934 9.43383 68.8074 8.82612 82.6404 8.35053C90.2121 8.09072 97.9654 8.43639 105.561 7.89915C108.351 7.88374 111.14 7.88158 113.929 7.89039C125.59 7.93223 137.237 8.37698 148.878 8.98688C152.621 9.18284 155.476 9.39421 159.141 9.53732C160.532 9.59237 162.74 9.62981 164.275 9.65403C164.501 9.65843 165.076 9.66279 165.314 9.66499C165.339 9.6694 165.363 9.6694 165.389 9.6694C165.481 9.6694 165.524 9.66279 165.533 9.66279C166.054 9.58573 166.006 9.09034 165.993 9.01548C165.99 9.00006 165.912 8.58171 165.463 8.5663C165.356 8.5619 164.588 8.55754 164.293 8.55313C162.766 8.52891 160.567 8.49148 159.182 8.43863C155.524 8.29552 152.672 8.08415 148.935 7.88819C137.277 7.27829 125.612 6.83133 113.934 6.7895C112.507 6.78509 111.079 6.78289 109.652 6.78509C109.604 6.65959 109.497 6.51868 109.261 6.45703C109.04 6.39978 107.458 6.34914 106.848 6.2985C102.33 5.9242 102.463 5.94181 97.4928 5.63576C89.9649 5.17119 88.8185 5.06545 80.9886 4.86949C66.7662 4.5128 52.5373 4.54146 38.3127 4.57669C31.2901 4.59651 23.7708 5.07429 16.641 4.18256C18.9907 3.90514 21.349 3.70258 23.703 3.47139C31.7407 2.68315 39.785 2.19433 47.8555 1.85085C67.2147 1.02738 86.6045 0.699339 105.957 1.82225C101.838 1.86188 97.7203 1.95433 93.6009 2.01378C76.8319 2.26038 59.9011 2.07545 43.1672 3.35469C42.8675 3.37891 42.6422 3.64311 42.6641 3.94475C42.6859 4.2486 42.9506 4.47539 43.2503 4.45338C59.9624 3.17414 76.8691 3.36127 93.6162 3.11467C99.8381 3.0244 106.058 2.86148 112.28 2.90992C114.415 2.92754 116.55 3.00681 118.685 3.03323C119.108 3.03984 120.195 3.12351 120.35 3.08828C120.694 3.01122 120.768 2.75579 120.79 2.63029C120.801 2.55543 120.836 2.12388 120.311 1.96975C116.727 0.917299 110.114 0.965739 106.631 0.75877C87.0399 -0.408177 67.4094 -0.0823212 47.8096 0.749955C39.7194 1.09564 31.6554 1.58666 23.5958 2.37711C20.7802 2.65233 17.9581 2.89012 15.1534 3.25562C14.7005 3.31507 13.6833 3.40095 13.191 3.49122C12.9854 3.52865 12.8366 3.58146 12.771 3.61889C12.515 3.76421 12.4691 3.97558 12.4691 4.1187C12.4669 4.22879 12.5128 4.6163 13.0488 4.72199C21.2156 6.3315 30.1021 5.6996 38.3149 5.67758C52.5307 5.64236 66.7487 5.6137 80.9624 5.97039C88.7725 6.16634 89.9145 6.26988 97.4272 6.73445C98.1688 6.77849 98.7967 6.81807 99.3458 6.8511Z" fill="#9160FD" fill-opacity="0.5"/>
</svg>
